<?xml version="1.0" encoding="utf-8"?>
<svg width="33px" height="15px" viewBox="0 0 33 15" version="1.1" xmlns:xlink="http://www.w3.org/1999/xlink" xmlns="http://www.w3.org/2000/svg">
  <g id="len">
    <g transform="translate(0, 2.8977273)" id="len">
      <path d="M1.92614 2.89773L1.92614 11.625L0.920455 11.625L0.920455 2.89773L1.92614 2.89773ZM6.51136 11.7614Q5.56534 11.7614 4.88139 11.3416Q4.19744 10.9219 3.82884 10.1655Q3.46023 9.40909 3.46023 8.40341Q3.46023 7.39773 3.82884 6.62855Q4.19744 5.85938 4.86009 5.42685Q5.52273 4.99432 6.40909 4.99432Q6.92045 4.99432 7.41903 5.16477Q7.91761 5.33523 8.3267 5.71662Q8.7358 6.09801 8.97869 6.72443Q9.22159 7.35085 9.22159 8.26705L9.22159 8.69318L4.47017 8.69318Q4.50426 9.74148 5.06463 10.2997Q5.625 10.858 6.51136 10.858Q7.10369 10.858 7.52983 10.6023Q7.95597 10.3466 8.14773 9.83523L9.11932 10.108Q8.8892 10.8494 8.19886 11.3054Q7.50852 11.7614 6.51136 11.7614ZM4.47017 7.82386L8.19886 7.82386Q8.19886 6.9929 7.71307 6.44531Q7.22727 5.89773 6.40909 5.89773Q5.83381 5.89773 5.41193 6.16619Q4.99006 6.43466 4.74716 6.87571Q4.50426 7.31676 4.47017 7.82386ZM11.7614 7.6875L11.7614 11.625L10.7557 11.625L10.7557 5.07955L11.7273 5.07955L11.7273 6.10227L11.8125 6.10227Q12.0426 5.60369 12.5114 5.29901Q12.9801 4.99432 13.7216 4.99432Q14.7145 4.99432 15.326 5.60369Q15.9375 6.21307 15.9375 7.46591L15.9375 11.625L14.9318 11.625L14.9318 7.53409Q14.9318 6.76278 14.5313 6.33026Q14.1307 5.89773 13.4318 5.89773Q12.7116 5.89773 12.2365 6.36435Q11.7614 6.83097 11.7614 7.6875Z" />
    </g>
  </g>
  <path d="M31 0C32.1047 0 33 0.895279 33 2L33 13C33 14.1047 32.1047 15 31 15L22 15C20.8953 15 20 14.1047 20 13L20 2C20 0.895279 20.8953 0 22 0L31 0Z" id="Rectangle" fill="#000000" stroke="none" />
  <g id="8" transform="translate(22.5 0)">
    <g transform="translate(0, 2.8977273)" id="8" fill="#FFFFFF">
      <path d="M3.69886 11.7443Q2.82102 11.7443 2.14986 11.4311Q1.47869 11.1179 1.10369 10.5661Q0.728693 10.0142 0.732955 9.30682Q0.728693 8.75284 0.950284 8.28196Q1.17188 7.81108 1.55753 7.49361Q1.94318 7.17614 2.42045 7.09091L2.42045 7.03977Q1.79403 6.87784 1.4233 6.33452Q1.05256 5.79119 1.05682 5.09659Q1.05256 4.43182 1.39347 3.90767Q1.73438 3.38352 2.3331 3.08097Q2.93182 2.77841 3.69886 2.77841Q4.45739 2.77841 5.05398 3.08097Q5.65057 3.38352 5.99361 3.90767Q6.33665 4.43182 6.34091 5.09659Q6.33665 5.79119 5.96378 6.33452Q5.59091 6.87784 4.97727 7.03977L4.97727 7.09091Q5.45028 7.17614 5.82955 7.49361Q6.20881 7.81108 6.43466 8.28196Q6.66051 8.75284 6.66477 9.30682Q6.66051 10.0142 6.28338 10.5661Q5.90625 11.1179 5.23935 11.4311Q4.57244 11.7443 3.69886 11.7443ZM3.69886 10.8068Q4.58523 10.8068 5.10298 10.3828Q5.62074 9.95881 5.625 9.25568Q5.62074 8.76136 5.36932 8.3821Q5.1179 8.00284 4.68537 7.78551Q4.25284 7.56818 3.69886 7.56818Q3.14063 7.56818 2.70384 7.78551Q2.26705 8.00284 2.01776 8.3821Q1.76847 8.76136 1.77273 9.25568Q1.76847 9.95881 2.28409 10.3828Q2.79972 10.8068 3.69886 10.8068ZM3.69886 6.66477Q4.40199 6.66477 4.85795 6.25355Q5.31392 5.84233 5.31818 5.16477Q5.31392 4.5 4.86861 4.09943Q4.4233 3.69886 3.69886 3.69886Q2.96591 3.69886 2.5206 4.09943Q2.07528 4.5 2.07955 5.16477Q2.07528 5.84233 2.52912 6.25355Q2.98295 6.66477 3.69886 6.66477Z" />
    </g>
  </g>
</svg>